# xmcd
#
# Track frame offsets:
#	150
#	13155
#	27171
#	38099
#	48974
#	64797
#	77122
#	86655
#	100437
#	110719
#	123352
#	134235
#	145217
#
# Disc length: 2108 seconds
#
# Revision: 0
# Processed by: cddbd v1.4PL0 Copyright (c) Steve Scherf et al.
# Submitted via: audiograbber 1.81.03
#
DISCID=b8083a0d
DTITLE=Leon Redbone - Sugar
DYEAR=1990
DGENRE=Blues
TTITLE0=Ghost Of The St Louis Blues
TTITLE1=Roll Along Kentucky Moon
TTITLE2=Right Or Wrong
TTITLE3=Laughin' Blues
TTITLE4=Breeze
TTITLE5=The Whistling Colonel
TTITLE6=Sugar
TTITLE7=Pretty Baby
TTITLE8=When I Take My Sugar To Tea
TTITLE9=What You Want Me To Do
TTITLE10=Messin' Around
TTITLE11=So, Relax
TTITLE12=14th Street Blues
EXTD=
EXTT0=
EXTT1=
EXTT2=
EXTT3=
EXTT4=
EXTT5=
EXTT6=
EXTT7=
EXTT8=
EXTT9=
EXTT10=
EXTT11=
EXTT12=
PLAYORDER=
